<svg id="hermes-logo" xmlns="http://www.w3.org/2000/svg" xmlns:xlink="http://www.w3.org/1999/xlink" viewBox="0 0 4320 4320"><defs><style>.cls-1{fill:url(#Dégradé_sans_nom_22);}.cls-2{fill:url(#Dégradé_sans_nom_22-2);}.cls-3{fill:url(#Dégradé_sans_nom_25);}.cls-4{fill:url(#Dégradé_sans_nom_25-2);}.cls-5{fill:url(#Dégradé_sans_nom_25-3);}.cls-6{fill:url(#Dégradé_sans_nom_25-4);}.cls-7{fill:url(#Dégradé_sans_nom_25-5);}</style><linearGradient id="Dégradé_sans_nom_22" x1="854.2" y1="1146.54" x2="2271.55" y2="2748.33" gradientUnits="userSpaceOnUse"><stop offset="0" stop-color="#f7f7f7"/><stop offset="1" stop-color="#f4f3e1"/></linearGradient><linearGradient id="Dégradé_sans_nom_22-2" x1="2097.86" y1="46.09" x2="3515.21" y2="1647.89" xlink:href="#Dégradé_sans_nom_22"/><linearGradient id="Dégradé_sans_nom_25" x1="211.96" y1="1575.29" x2="2238.9" y2="3602.22" gradientUnits="userSpaceOnUse"><stop offset="0" stop-color="#f9d270"/><stop offset="0.13" stop-color="#f8cf63"/><stop offset="0.48" stop-color="#f5c746"/><stop offset="0.78" stop-color="#f3c334"/><stop offset="1" stop-color="#f2c12e"/></linearGradient><linearGradient id="Dégradé_sans_nom_25-2" x1="1024.73" y1="762.52" x2="3051.67" y2="2789.45" xlink:href="#Dégradé_sans_nom_25"/><linearGradient id="Dégradé_sans_nom_25-3" x1="720.6" y1="1066.65" x2="2747.54" y2="3093.58" xlink:href="#Dégradé_sans_nom_25"/><linearGradient id="Dégradé_sans_nom_25-4" x1="503.87" y1="1272.45" x2="2530.81" y2="3299.39" xlink:href="#Dégradé_sans_nom_25"/><linearGradient id="Dégradé_sans_nom_25-5" x1="866.66" y1="909.48" x2="2893.6" y2="2936.41" xlink:href="#Dégradé_sans_nom_25"/></defs><path class="cls-1" d="M1642,1405c-163.58,83.83-362.06,254.09-398.73,592.31-82.48-18.7-154-44.38-190.8-58.69-8-3.11-7.52-15.39.7-17.8,36.53-10.68,98.25-33.48,110.78-68.2a3.11,3.11,0,0,0-3-4.24C949.8,1863.25,829,1750,791.7,1707.79c-5.15-5.83-1.5-15.43,6-15.75,35.09-1.5,112.86-9.3,171.84-47.71a3.27,3.27,0,0,0-.45-5.65C763.91,1551.29,715.81,1405.47,705.15,1356c-1.56-7.27,5.09-13.45,11.6-10.81,36.51,14.8,134.43,48.39,204.37,16.09a3.27,3.27,0,0,0,.81-5.23C696.24,1133.89,729.75,913.26,764.19,849.16c3.92-7.28,14.1-5.81,16,2.33,41.11,174.69,275.46,336.58,358.71,383.89,73.86,42,319.85,91.42,410.73,116.14C1587.5,1361.82,1618,1380.1,1642,1405Z"/><path class="cls-2" d="M3350.48,1644.33c59,38.41,136.75,46.21,171.84,47.71,7.48.32,11.13,9.92,6,15.75C3491,1750,3370.2,1863.25,3159,1848.39a3.11,3.11,0,0,0-3,4.24c12.53,34.72,74.25,57.52,110.78,68.2,8.22,2.41,8.72,14.69.7,17.8-36.83,14.31-108.32,40-190.8,58.69C3040,1659.1,2841.54,1488.84,2678,1405c24-24.91,54.54-43.19,92.39-53.49,90.88-24.72,336.87-74.17,410.73-116.14,83.25-47.31,317.6-209.2,358.71-383.89,1.92-8.14,12.1-9.61,16-2.33,34.44,64.1,68,284.73-157.74,506.84a3.27,3.27,0,0,0,.81,5.23c69.94,32.3,167.86-1.29,204.37-16.09,6.51-2.64,13.16,3.54,11.6,10.81-10.66,49.52-58.76,195.34-263.92,282.73A3.27,3.27,0,0,0,3350.48,1644.33Z"/><path class="cls-3" d="M1330.88,2463.59a16.9,16.9,0,0,1,25.7-14.44c89.18,54.39,384.49,242.33,469.32,395.56,84.44,152.54,116.14,603.15,124.06,741.94.87,15.12-17.07,23.65-28.26,13.45l-585.3-533.55a16.9,16.9,0,0,1-5.52-12.5Z"/><path class="cls-4" d="M2986.43,2242.43a16.89,16.89,0,0,1-5.59,11.46C2857,2364.73,2787,2426.14,2750,2458.09c-12,10.41-30.47-.06-27.71-15.73l24.9-141.09a16.9,16.9,0,0,0-24.11-18.11c-97,47.81-399.74,203.94-445.83,312.38-46.77,110.05-2.31,280.92,12.05,329.64a16.88,16.88,0,0,1-8.55,19.83l-113,57.53a17.18,17.18,0,0,1-15.58,0l-113-57.53a16.88,16.88,0,0,1-8.55-19.83c14.36-48.72,58.82-219.59,12-329.64-46.09-108.44-348.82-264.57-445.83-312.38a16.9,16.9,0,0,0-24.11,18.11l24.9,141.09c2.76,15.67-15.67,26.14-27.71,15.73-36.91-32-107-93.36-230.8-204.2a16.89,16.89,0,0,1-5.59-11.46c-4.6-70.17-3.15-134.72,3.28-194.09,36.67-338.22,235.15-508.48,398.73-592.31,95.11-48.74,178.41-68.27,211.29-74.62a16.89,16.89,0,0,0,13.64-18c-4.89-57.49-22.75-261.53-39-370.69a16.79,16.79,0,0,1,8.12-17c67.8-39.3,177.79-187,216.39-240.64a17.17,17.17,0,0,1,27.86,0c38.6,53.64,148.59,201.34,216.39,240.64a16.79,16.79,0,0,1,8.12,17c-16.2,109.16-34.06,313.2-39,370.69a16.89,16.89,0,0,0,13.64,18c32.88,6.35,116.18,25.88,211.29,74.62,163.58,83.83,362.06,254.09,398.73,592.31C2989.58,2107.71,2991,2172.26,2986.43,2242.43Z"/><path class="cls-5" d="M2989.12,2463.59a16.9,16.9,0,0,0-25.7-14.44c-89.18,54.39-384.49,242.33-469.32,395.56C2409.66,2997.25,2378,3447.86,2370,3586.65c-.87,15.12,17.07,23.65,28.26,13.45l585.3-533.55a16.9,16.9,0,0,0,5.52-12.5Z"/><rect class="cls-6" x="1725.56" y="2462.17" width="143.11" height="207.05" rx="53.03"/><rect class="cls-7" x="2451.33" y="2462.17" width="143.11" height="207.05" rx="53.03"/></svg>